<?xml version="1.0" encoding="iso-8859-1"?>
<!-- Generator: Adobe Illustrator 19.0.0, SVG Export Plug-In . SVG Version: 6.00 Build 0)  -->
<svg version="1.1" id="Capa_1" xmlns="http://www.w3.org/2000/svg" xmlns:xlink="http://www.w3.org/1999/xlink" x="0px" y="0px"
	 viewBox="0 0 512 512" style="enable-background:new 0 0 512 512;" xml:space="preserve">
<g>
	<g>
		<path d="M182.996,128.015c-45.214,0-81.998,36.784-81.998,81.998c0,45.214,36.784,81.998,81.998,81.998
			s81.998-36.784,81.998-81.998C264.994,164.799,228.21,128.015,182.996,128.015z M182.996,272.011
			c-34.186,0-61.998-27.812-61.998-61.998c0-34.186,27.812-61.998,61.998-61.998c34.186,0,61.998,27.812,61.998,61.998
			C244.994,244.199,217.182,272.011,182.996,272.011z"/>
	</g>
</g>
<g>
	<g>
		<path d="M263.06,336.387c-1.859-1.86-4.43-2.93-7.069-2.93c-2.631,0-5.21,1.07-7.07,2.93c-1.86,1.86-2.93,4.44-2.93,7.07
			s1.069,5.21,2.93,7.07s4.439,2.93,7.07,2.93c2.64,0,5.21-1.07,7.069-2.93c1.87-1.86,2.931-4.44,2.931-7.07
			S264.93,338.247,263.06,336.387z"/>
	</g>
</g>
<g>
	<g>
		<path d="M219.251,333.458H109.998c-5.522,0-10,4.477-10,10s4.478,10,10,10h109.253c5.522,0,10-4.477,10-10
			S224.773,333.458,219.251,333.458z"/>
	</g>
</g>
<g>
	<g>
		<path d="M255.994,379.081H109.998c-5.522,0-10,4.477-10,10s4.478,10,10,10h145.996c5.522,0,10-4.477,10-10
			S261.517,379.081,255.994,379.081z"/>
	</g>
</g>
<g>
	<g>
		<path d="M255.994,424.705H149.503c-5.522,0-10,4.477-10,10s4.478,10,10,10h106.491c5.522,0,10-4.477,10-10
			S261.517,424.705,255.994,424.705z"/>
	</g>
</g>
<g>
	<g>
		<path d="M117.064,427.635c-1.859-1.86-4.43-2.93-7.069-2.93c-2.631,0-5.21,1.07-7.07,2.93c-1.86,1.86-2.93,4.44-2.93,7.07
			s1.069,5.21,2.93,7.07s4.439,2.93,7.07,2.93c2.64,0,5.21-1.07,7.069-2.93c1.87-1.86,2.931-4.44,2.931-7.07
			S118.933,429.495,117.064,427.635z"/>
	</g>
</g>
<g>
	<g>
		<path d="M475,0H183.008c-5.522,0-10,4.477-10,10v44.012H37c-5.522,0-10,4.477-10,10V502c0,5.523,4.478,10,10,10h291.993
			c5.522,0,10-4.477,10-10v-44.012H475c5.522,0,10-4.477,10-10V10C485,4.477,480.523,0,475,0z M318.992,492H46.999V74.011h271.993
			V492z M465.001,437.989H338.992V64.011c0-5.523-4.478-10-10-10H193.008V20h271.993V437.989z"/>
	</g>
</g>
<g>
</g>
<g>
</g>
<g>
</g>
<g>
</g>
<g>
</g>
<g>
</g>
<g>
</g>
<g>
</g>
<g>
</g>
<g>
</g>
<g>
</g>
<g>
</g>
<g>
</g>
<g>
</g>
<g>
</g>
</svg>
